<svg width="53" height="76" viewBox="0 0 53 76" fill="none" xmlns="http://www.w3.org/2000/svg">
<ellipse cx="37.6578" cy="71.7778" rx="4.18421" ry="4.22222" fill="#9CBDE2"/>
<ellipse cx="15.342" cy="38" rx="4.18421" ry="4.22222" fill="#9CBDE2"/>
<ellipse cx="26.5" cy="38" rx="4.18421" ry="4.22222" fill="#9CBDE2"/>
<ellipse cx="37.6578" cy="38" rx="4.18421" ry="4.22222" fill="#9CBDE2"/>
<ellipse cx="26.5" cy="71.7778" rx="4.18421" ry="4.22222" fill="#9CBDE2"/>
<ellipse cx="15.342" cy="71.7778" rx="4.18421" ry="4.22222" fill="#9CBDE2"/>
<ellipse cx="37.6578" cy="60.5185" rx="4.18421" ry="4.22223" fill="#9CBDE2"/>
<ellipse cx="26.5" cy="60.5185" rx="4.18421" ry="4.22223" fill="#9CBDE2"/>
<ellipse cx="15.342" cy="60.5185" rx="4.18421" ry="4.22223" fill="#9CBDE2"/>
<ellipse cx="37.6578" cy="49.2593" rx="4.18421" ry="4.22222" fill="#9CBDE2"/>
<ellipse cx="26.5" cy="49.2593" rx="4.18421" ry="4.22222" fill="#9CBDE2"/>
<ellipse cx="15.342" cy="49.2593" rx="4.18421" ry="4.22222" fill="#9CBDE2"/>
<ellipse cx="4.18421" cy="26.7407" rx="4.18421" ry="4.22222" fill="#9CBDE2"/>
<ellipse cx="26.5" cy="4.22222" rx="4.18421" ry="4.22222" fill="#9CBDE2"/>
<ellipse cx="48.8158" cy="26.7407" rx="4.18421" ry="4.22222" fill="#9CBDE2"/>
<ellipse cx="37.6578" cy="26.7407" rx="4.18421" ry="4.22222" fill="#9CBDE2"/>
<ellipse cx="26.5" cy="26.7407" rx="4.18421" ry="4.22222" fill="#9CBDE2"/>
<ellipse cx="15.342" cy="26.7407" rx="4.18421" ry="4.22222" fill="#9CBDE2"/>
<ellipse cx="37.6578" cy="15.4815" rx="4.18421" ry="4.22222" fill="#9CBDE2"/>
<ellipse cx="26.5" cy="15.4815" rx="4.18421" ry="4.22222" fill="#9CBDE2"/>
<ellipse cx="15.342" cy="15.4815" rx="4.18421" ry="4.22222" fill="#9CBDE2"/>
</svg>
