<svg width="78" height="78" viewBox="0 0 78 78" fill="none" xmlns="http://www.w3.org/2000/svg">
<path fill-rule="evenodd" clip-rule="evenodd" d="M39 78C60.5391 78 78 60.5391 78 39C78 17.4609 60.5391 0 39 0C17.4609 0 0 17.4609 0 39C0 60.5391 17.4609 78 39 78ZM69.81 39C69.81 21.84 55.77 7.8 38.61 7.8C21.45 7.8 7.41 21.84 7.41 39C7.41 56.16 21.45 70.2 38.61 70.2C55.77 70.2 69.81 56.16 69.81 39Z" fill="#FF0000"/>
<path d="M38.5 30.5C40.3129 30.5 41.5 29.3366 41.5 27.5C41.5 25.6634 40.373 24.5 38.5 24.5C36.627 24.5 35.5 25.7596 35.5 27.5C35.5 29.2404 36.6871 30.5 38.5 30.5Z" fill="#FF0000"/>
<path d="M33 55H44V54C42 54 41 53 41 51V38C41 36 42 35 44 35V34H36V51C36 53 35 54 33 54V55Z" fill="#FF0000"/>
</svg>
