<svg width="152" height="183" viewBox="0 0 152 183" fill="none" xmlns="http://www.w3.org/2000/svg">
<path fill-rule="evenodd" clip-rule="evenodd" d="M93.8559 18.2467C91.0166 22.9733 91.0955 24.6801 91.4898 24.9427C92.0248 24.9427 92.3179 24.9427 92.4784 25.0884C92.6729 25.2649 92.6729 25.6552 92.6729 26.5182C92.6729 28.724 94.2503 29.538 95.039 29.6693C95.8587 30.1731 96.6683 30.6467 97.4566 31.1079C101.598 33.5307 105.15 35.6085 106.475 39.9103C109.932 45.8941 113.809 49.4406 116.263 51.6853C117.169 52.5139 117.881 53.1652 118.306 53.6962C123.038 59.3681 123.958 63.6745 123.827 65.1188C124.221 68.2698 121.461 69.8454 119.883 70.6331C118.466 71.36 117.137 72.0423 115.891 72.6818C104.31 78.6265 99.932 80.8741 98.9825 80.8741C97.0896 80.8741 94.7761 76.6727 93.8559 74.572C91.6476 71.736 90.3068 73.1277 89.9124 74.1781C89.9124 75.1234 90.7011 75.3597 90.7011 75.3597C91.2824 76.2306 91.2211 77.1016 91.1486 78.1302C91.1227 78.4972 91.0955 78.8842 91.0955 79.2986C91.411 80.559 92.0156 80.8741 92.2785 80.8741C95.039 80.4802 96.2221 88.0953 96.2221 90.7212C95.8277 94.66 96.2221 95.8416 97.0108 96.2355C98.5882 97.8111 98.9825 98.5988 98.9825 100.568C100.244 100.568 99.7712 101.356 99.3769 101.75C98.4304 102.065 98.5882 103.325 98.9825 103.325C103.32 106.476 104.109 110.809 104.109 113.566C104.109 118.923 107.132 121.707 108.841 122.232C110.419 122.232 110.419 123.413 110.419 124.201C110.419 126.722 111.996 127.615 112.785 127.746C115.545 130.503 117.123 133.129 117.123 134.048C117.123 135.309 118.437 135.624 119.095 135.624C124.458 137.83 129.216 142.32 130.925 144.289V146.259C137.235 152.876 139.338 155.843 139.601 156.5C143.071 160.596 146.568 163.196 147.882 163.983C151.037 166.347 151.826 168.316 151.826 170.679C152.141 172.885 151.957 176.588 151.826 178.163C151.195 180.684 147.619 182.365 145.911 182.89C139.601 183.205 139.493 182.854 139.207 181.708C138.812 180.133 138.812 176.588 140.39 175.012C141.967 174.382 142.098 172.386 141.967 171.467C140.705 168.631 137.235 165.296 135.657 163.983C130.61 160.517 126.982 157.55 125.799 156.5C123.59 157.76 121.198 158.6 120.278 158.863L104.109 144.683L93.0672 136.018L77.6875 111.203C74.5327 105.846 69.2746 105.032 67.04 105.295C60.4148 105.925 49.0312 109.234 44.1675 110.809C41.4275 110.536 41.0672 110.737 40.5031 111.053C40.4177 111.101 40.3277 111.151 40.224 111.203C39.9085 113.724 39.8296 125.12 39.8296 130.503C41.7225 139.326 44.0361 146.259 44.9562 148.622C47.7956 151.773 47.9796 154.661 47.7167 155.712C47.0857 156.657 45.0877 156.893 44.1675 156.893C41.9591 156.893 38.5151 156.631 37.0692 156.5C34.5453 155.869 31.0224 156.5 29.5765 156.893H20.112C18.8501 156.893 18.9289 154.53 21.295 154.136C26.816 153.217 31.5482 150.985 33.52 149.41C35.4129 147.519 34.5716 145.208 33.9143 144.289C32.0214 138.932 29.7079 132.604 28.7878 130.109C26.8949 130.109 24.0555 129.847 22.8725 129.716C22.2415 129.716 21.6894 129.322 21.6894 128.534L20.9007 106.87C20.5852 101.198 24.9757 98.2049 27.2103 97.4172C37.9367 90.4848 45.3506 87.4388 47.7167 86.7823C51.187 86.7823 51.7917 85.732 51.6602 85.2068C51.6602 80.4802 52.9747 79.8237 53.632 80.0863C56.4713 80.0863 56.7868 80.0863 57.1812 79.2986C57.8921 66.5175 60.0981 59.3899 60.9115 56.7621C61.0005 56.4745 61.0728 56.2408 61.1247 56.0595C61.1247 54.1688 60.8618 51.858 60.7303 50.939C58.5219 48.7332 47.4538 48.4444 42.1957 48.5757L17.3515 45.0307C17.3515 39.3588 17.3515 38.3347 16.9572 37.547C12.8559 37.547 10.6475 37.547 10.2532 38.3347C7.72931 40.5405 5.78384 41.3545 5.12659 41.4858C3.54917 41.4858 1.31451 40.4354 0.394353 39.9103C0.0788705 38.0196 0 34.9211 0 33.6081C0 32.7873 0.394353 32.4265 1.18306 32.4265C19.1655 32.4265 35.2288 33.4768 41.0127 34.002C44.1675 35.2624 46.0078 34.7898 46.5336 34.3959C47.4801 34.3959 47.7167 34.9211 47.7167 35.1837C48.111 35.9714 51.2659 37.1531 52.8433 35.5775C53.0153 35.5203 53.1726 35.4664 53.3156 35.4175C53.9592 35.1973 54.3131 35.0762 54.4207 35.1837C61.0458 34.5534 68.223 33.6081 70.1948 31.2448C72.4032 30.9297 75.8472 30.8509 77.2931 30.8509C79.5015 30.2207 78.7391 29.0128 78.0818 28.4876C75.8735 27.5423 75.0585 27.306 74.927 27.306C73.3496 27.306 72.6924 24.4175 72.5609 22.9733C71.9299 21.0827 72.0351 19.297 72.1666 18.6406C70.2737 18.6406 70.852 16.8025 71.3779 15.8834C72.6398 11.1568 73.744 8.13703 74.1383 7.21797C74.1383 6.58776 73.8754 5.64244 73.744 5.24856C73.744 3.04281 76.6359 1.17843 78.0818 0.52196C83.1296 -0.42336 88.0721 0.128077 89.9124 0.52196C91.4898 1.46729 92.41 3.01655 92.6729 3.67302C96.6164 9.97515 94.7761 16.0147 93.8559 18.2467ZM105.687 62.7555C104.109 63.9371 102.532 64.7249 98.1938 66.3004C97.7995 66.3004 97.0896 65.9065 97.4051 64.331C97.5031 64.1597 97.5981 63.993 97.6906 63.8304C99.0881 61.3765 99.9427 59.8759 102.532 58.0289C103.405 58.1534 104.337 58.7802 105.328 59.4468C106.427 60.1854 107.598 60.9729 108.841 61.1799C108.973 61.7051 108.526 62.7555 105.687 62.7555Z" fill="#FF0000"/>
<path fill-rule="evenodd" clip-rule="evenodd" d="M93.8559 18.2467C91.0166 22.9733 91.0955 24.6801 91.4898 24.9427C92.0248 24.9427 92.3179 24.9427 92.4784 25.0884C92.6729 25.2649 92.6729 25.6552 92.6729 26.5182C92.6729 28.724 94.2503 29.538 95.039 29.6693C95.8587 30.1731 96.6683 30.6467 97.4566 31.1079C101.598 33.5307 105.15 35.6085 106.475 39.9103C109.932 45.8941 113.809 49.4406 116.263 51.6853C117.169 52.5139 117.881 53.1652 118.306 53.6962C123.038 59.3681 123.958 63.6745 123.827 65.1188C124.221 68.2698 121.461 69.8454 119.883 70.6331C118.466 71.36 117.137 72.0423 115.891 72.6818C104.31 78.6265 99.932 80.8741 98.9825 80.8741C97.0896 80.8741 94.7761 76.6727 93.8559 74.572C91.6476 71.736 90.3068 73.1277 89.9124 74.1781C89.9124 75.1234 90.7011 75.3597 90.7011 75.3597C91.2824 76.2306 91.2211 77.1016 91.1486 78.1302C91.1227 78.4972 91.0955 78.8842 91.0955 79.2986C91.411 80.559 92.0156 80.8741 92.2785 80.8741C95.039 80.4802 96.2221 88.0953 96.2221 90.7212C95.8277 94.66 96.2221 95.8416 97.0108 96.2355C98.5882 97.8111 98.9825 98.5988 98.9825 100.568C100.244 100.568 99.7712 101.356 99.3769 101.75C98.4304 102.065 98.5882 103.325 98.9825 103.325C103.32 106.476 104.109 110.809 104.109 113.566C104.109 118.923 107.132 121.707 108.841 122.232C110.419 122.232 110.419 123.413 110.419 124.201C110.419 126.722 111.996 127.615 112.785 127.746C115.545 130.503 117.123 133.129 117.123 134.048C117.123 135.309 118.437 135.624 119.095 135.624C124.458 137.83 129.216 142.32 130.925 144.289V146.259C137.235 152.876 139.338 155.843 139.601 156.5C143.071 160.596 146.568 163.196 147.882 163.983C151.037 166.347 151.826 168.316 151.826 170.679C152.141 172.885 151.957 176.588 151.826 178.163C151.195 180.684 147.619 182.365 145.911 182.89C139.601 183.205 139.493 182.854 139.207 181.708C138.812 180.133 138.812 176.588 140.39 175.012C141.967 174.382 142.098 172.386 141.967 171.467C140.705 168.631 137.235 165.296 135.657 163.983C130.61 160.517 126.982 157.55 125.799 156.5C123.59 157.76 121.198 158.6 120.278 158.863L104.109 144.683L93.0672 136.018L77.6875 111.203C74.5327 105.846 69.2746 105.032 67.04 105.295C60.4148 105.925 49.0312 109.234 44.1675 110.809C41.4275 110.536 41.0672 110.737 40.5031 111.053C40.4177 111.101 40.3277 111.151 40.224 111.203C39.9085 113.724 39.8296 125.12 39.8296 130.503C41.7225 139.326 44.0361 146.259 44.9562 148.622C47.7956 151.773 47.9796 154.661 47.7167 155.712C47.0857 156.657 45.0877 156.893 44.1675 156.893C41.9591 156.893 38.5151 156.631 37.0692 156.5C34.5453 155.869 31.0224 156.5 29.5765 156.893H20.112C18.8501 156.893 18.9289 154.53 21.295 154.136C26.816 153.217 31.5482 150.985 33.52 149.41C35.4129 147.519 34.5716 145.208 33.9143 144.289C32.0214 138.932 29.7079 132.604 28.7878 130.109C26.8949 130.109 24.0555 129.847 22.8725 129.716C22.2415 129.716 21.6894 129.322 21.6894 128.534L20.9007 106.87C20.5852 101.198 24.9757 98.2049 27.2103 97.4172C37.9367 90.4848 45.3506 87.4388 47.7167 86.7823C51.187 86.7823 51.7917 85.732 51.6602 85.2068C51.6602 80.4802 52.9747 79.8237 53.632 80.0863C56.4713 80.0863 56.7868 80.0863 57.1812 79.2986C57.8921 66.5175 60.0981 59.3899 60.9115 56.7621C61.0005 56.4745 61.0728 56.2408 61.1247 56.0595C61.1247 54.1688 60.8618 51.858 60.7303 50.939C58.5219 48.7332 47.4538 48.4444 42.1957 48.5757L17.3515 45.0307C17.3515 39.3588 17.3515 38.3347 16.9572 37.547C12.8559 37.547 10.6475 37.547 10.2532 38.3347C7.72931 40.5405 5.78384 41.3545 5.12659 41.4858C3.54917 41.4858 1.31451 40.4354 0.394353 39.9103C0.0788705 38.0196 0 34.9211 0 33.6081C0 32.7873 0.394353 32.4265 1.18306 32.4265C19.1655 32.4265 35.2288 33.4768 41.0127 34.002C44.1675 35.2624 46.0078 34.7898 46.5336 34.3959C47.4801 34.3959 47.7167 34.9211 47.7167 35.1837C48.111 35.9714 51.2659 37.1531 52.8433 35.5775C53.0153 35.5203 53.1726 35.4664 53.3156 35.4175C53.9592 35.1973 54.3131 35.0762 54.4207 35.1837C61.0458 34.5534 68.223 33.6081 70.1948 31.2448C72.4032 30.9297 75.8472 30.8509 77.2931 30.8509C79.5015 30.2207 78.7391 29.0128 78.0818 28.4876C75.8735 27.5423 75.0585 27.306 74.927 27.306C73.3496 27.306 72.6924 24.4175 72.5609 22.9733C71.9299 21.0827 72.0351 19.297 72.1666 18.6406C70.2737 18.6406 70.852 16.8025 71.3779 15.8834C72.6398 11.1568 73.744 8.13703 74.1383 7.21797C74.1383 6.58776 73.8754 5.64244 73.744 5.24856C73.744 3.04281 76.6359 1.17843 78.0818 0.52196C83.1296 -0.42336 88.0721 0.128077 89.9124 0.52196C91.4898 1.46729 92.41 3.01655 92.6729 3.67302C96.6164 9.97515 94.7761 16.0147 93.8559 18.2467ZM105.687 62.7555C104.109 63.9371 102.532 64.7249 98.1938 66.3004C97.7995 66.3004 97.0896 65.9065 97.4051 64.331C97.5031 64.1597 97.5981 63.993 97.6906 63.8304C99.0881 61.3765 99.9427 59.8759 102.532 58.0289C103.405 58.1534 104.337 58.7802 105.328 59.4468C106.427 60.1854 107.598 60.9729 108.841 61.1799C108.973 61.7051 108.526 62.7555 105.687 62.7555Z" fill="#FF0000"/>
</svg>
