<svg class="" viewBox="0 0 149 208" xmlns="http://www.w3.org/2000/svg">
    <path fill-rule="evenodd" clip-rule="evenodd"
          d="M114.584 39.7923C114.584 39.2793 114.584 38.7663 114.07 38.2534C113.556 38.2534 113.043 37.7404 113.043 36.2014C113.556 34.8335 116.125 31.5846 122.291 29.5326C124.346 29.1906 129.484 28.7118 133.595 29.5326C136.678 30.5586 137.962 31.5846 139.247 34.6625C140.103 36.7144 141.199 42.2546 138.733 48.0001C137.363 50.736 134.622 56.2078 136.678 57.2338C137.877 58.0888 140.172 60.1065 139.761 61.3377C139.589 62.7057 140.172 66.6727 143.871 71.5974C144.385 72.4951 144.899 73.2646 145.38 73.986C146.825 76.1501 147.981 77.8815 147.981 81.3441C148.294 85.7133 147.466 88.7535 146.653 91.7352C146.13 93.6546 145.614 95.5498 145.412 97.7596C145.258 98.5295 145.15 99.3611 145.047 100.157C144.806 102.013 144.59 103.676 143.871 103.915C142.843 104.257 141.302 106.48 140.274 109.045C139.418 110.071 137.089 112.123 134.622 112.123C132.053 112.807 125.579 114.996 120.236 118.279C118.866 119.134 115.92 120.639 115.098 119.818C114.413 119.476 113.351 118.484 114.584 117.253C115.612 116.74 116.639 114.175 114.07 111.61C111.672 111.61 106.466 111.097 104.822 109.045C104.137 108.361 102.458 107.096 101.225 107.506C100.369 108.532 99.0671 111.302 100.711 114.175L103.794 124.435L101.739 125.461L99.6837 118.792C99.3411 118.621 98.4505 118.484 97.6284 119.305C97.6284 119.818 97.3201 121.357 96.087 123.409C95.0594 123.922 95.0594 124.655 95.0594 127C95.0594 127.855 94.7511 130.488 93.518 134.182C93.0042 136.747 92.2848 142.389 93.518 144.441C94.5456 146.151 94.5456 148.545 93.518 157.266L90.949 179.837H89.9213V182.402C89.9213 191.123 90.4351 193.688 93.518 196.253C95.7445 198.476 101.02 202.922 104.308 202.922C105.164 203.435 108.418 206 105.849 207.538C105.531 207.538 105.233 207.54 104.953 207.541C102.97 207.551 101.901 207.556 101.225 207.025C98.8273 205.145 91.6683 201.485 82.2142 201.896C80.6728 201.554 78.4121 199.228 81.7004 192.662V180.35L79.1314 179.324C75.6864 177.719 72.8573 176.934 70.5065 176.282C67.5982 175.475 65.422 174.871 63.7172 173.168L69.3691 134.182C69.7116 133.84 70.1912 132.13 69.3691 128.026C69.3691 127.684 69.1636 127.41 68.3415 129.052L66.2862 127.513C66.6288 127 68.0332 123.614 70.9105 114.175C70.9105 111.544 70.076 109.079 69.0729 106.117C68.316 103.881 67.463 101.361 66.8 98.2726C66.4326 95.7047 65.2243 92.8744 63.6637 89.2189C63.0421 87.7627 62.3645 86.1756 61.662 84.422C61.4907 83.909 60.4288 82.3701 57.5515 80.3181C57.0377 79.8052 56.5239 79.2922 56.0101 78.2662C55.8746 78.1309 55.7677 77.9956 55.6384 77.832C55.2777 77.3755 54.743 76.699 52.9273 75.1883C52.5847 74.8463 51.4886 73.5467 49.8444 71.0844C49.8444 70.1933 48.6042 68.7605 46.6623 66.5171C46.3683 66.1775 46.0582 65.8193 45.734 65.4416C45.3914 64.4156 44.2953 62.2611 42.6511 61.8507C42.1373 61.6797 41.007 61.0299 40.5959 59.7987C40.4247 59.4567 39.8766 58.6702 39.0545 58.2598C38.5407 57.7468 38.3352 57.439 37.5131 56.2078C37.5131 55.6949 36.9993 54.1559 34.944 52.104C34.7728 51.42 33.8137 49.7442 31.3474 48.5131C30.4911 47.8291 27.1342 45.23 20.5575 40.3053C20.2897 40.1716 20.0306 40.0466 19.7825 39.927C18.1267 39.1282 16.9608 38.5658 16.9608 37.2274L19.0161 27.9937C18.5022 27.3097 15.9332 24.3002 9.76754 17.734C9.61525 17.5819 9.4394 17.4023 9.2458 17.2045C7.91527 15.8454 5.74653 13.6301 4.62947 13.6301C3.08805 13.6301 1.03283 12.6041 0.51903 10.5522C0.00522339 10.3812 1.44388 8.19243 11.309 0.805442C11.6343 0.805442 11.867 0.7643 12.1113 0.721096C12.6386 0.627848 13.2202 0.524992 14.9056 0.805441C15.0721 0.916282 15.2627 1.0391 15.4687 1.17195C17.1702 2.26879 19.9327 4.04962 19.0161 5.42231C20.5575 4.90932 21.2768 6.14049 20.0437 6.96127C17.3034 8.15823 12.3366 10.9626 14.3918 12.6041C15.5907 13.8011 19.3244 17.221 24.668 21.3249C25.6956 20.8119 26.9801 20.8119 27.7508 21.3249C28.2646 21.6668 34.122 25.6339 53.4411 38.7663C56.524 43.3832 57.5516 41.3313 59.0927 36.2014C58.9012 35.9465 58.686 35.652 58.4519 35.3317C56.8015 33.0736 54.2134 29.5326 52.4135 29.5326C49.8445 29.0196 46.7616 25.9417 45.734 23.3768C45.2202 22.8638 45.2202 21.3249 46.7615 21.3249C46.7616 20.8119 46.7616 19.7859 48.3029 20.2989C47.7891 19.7859 47.2753 18.7599 49.3305 18.7599C48.988 18.2469 48.8167 17.221 50.8718 17.221C50.5293 16.879 50.872 16.195 51.3856 16.195C51.5233 16.195 51.6407 16.184 51.7496 16.1737C52.4539 16.1074 52.8061 16.0743 56.0099 19.2729C56.5237 19.4439 57.5512 20.1963 57.5512 21.8378C57.2087 23.2058 57.0374 26.1469 59.0927 26.9677C59.6065 27.4807 61.4562 28.917 64.7445 30.5586C66.7998 32.6105 68.3412 33.6365 72.4515 36.2014C72.5397 36.2894 72.6128 36.3775 72.6837 36.4629C73.026 36.8754 73.3181 37.2274 75.0205 37.2274C75.5234 37.5286 75.987 37.7906 76.415 38.0325C78.1734 39.0261 79.3321 39.681 80.1586 41.3313C80.9889 44.0946 82.1174 44.0297 83.6245 43.943C84.9151 43.8688 86.4833 43.7786 88.3795 45.4351C92.4564 47.0007 97.299 47.6107 101.038 48.0816C103.425 48.3823 105.362 48.6263 106.363 49.026C107.035 49.1603 107.721 49.3999 108.42 49.6438C110.391 50.3319 112.459 51.054 114.584 49.539C115.611 48.5131 115.976 46.8257 114.584 45.4351C114.07 44.9222 113.556 44.4092 114.584 42.8702V39.7923ZM63.2034 51.078C64.7449 50.565 66.2863 51.078 68.3415 53.1299C74.9182 55.1819 77.59 57.4048 78.1038 58.2598C82.6617 60.9143 86.6579 61.6065 90.0927 62.2014C91.3043 62.4113 92.4461 62.6091 93.518 62.8766C96.8064 62.8766 95.5732 66.2966 94.5456 68.0065C90.5808 67.5667 90.7709 68.541 90.9057 69.232C90.9281 69.3469 90.949 69.454 90.949 69.5455C90.949 70.5714 88.8938 71.0844 88.3795 69.5455V69.5434C88.3795 68.6719 88.3795 68.2946 88.1922 68.1312C88.0493 68.0065 87.7971 68.0065 87.3523 68.0065C83.2419 68.0065 82.7281 66.9805 82.7281 66.4675C82.7281 65.2364 79.3027 64.9286 77.59 64.9286C76.5624 64.9286 75.5348 62.8766 75.021 61.3377C71.7326 57.6442 70.2255 57.0628 69.8829 57.2338C66.2863 57.2338 64.2311 55.1819 62.6896 53.1299C61.4565 51.8988 62.5184 51.249 63.2034 51.078ZM113.043 102.889C112.358 103.06 111.707 104.018 114.584 106.48C115.44 106.651 117.153 106.686 117.153 105.454C117.153 105.283 117.461 104.941 118.694 104.941C119.208 105.112 120.236 105.352 120.236 104.941C120.236 104.428 120.236 103.915 120.75 103.915C121.949 104.086 123.833 103.402 124.346 102.377C125.031 102.377 127.224 101.658 130.512 98.7856C130.683 98.4436 130.409 97.5544 127.943 96.7337C127.6 96.5627 126.71 96.4259 125.888 97.2467L113.043 102.889Z"/>
</svg>
