<svg width="84" height="135" viewBox="0 0 84 135" fill="none" xmlns="http://www.w3.org/2000/svg">
<path fill-rule="evenodd" clip-rule="evenodd" d="M33.3675 13.8294C33.3675 1.21228 39.676 0.581427 44.7229 0.581421C51.6623 0.58144 54.1857 6.89001 53.5548 13.8294C55.5736 12.82 53.5548 18.0351 52.2931 20.7688C48.2557 25.8157 48.508 29.1802 49.1389 30.2316C51.6623 30.2316 52.2931 31.4934 52.2931 32.1242C52.2931 34.6476 56.4988 38.0122 58.6017 37.8019C67.4945 39.5805 71.7445 52.502 74.4931 60.8588C74.6693 61.3944 74.8393 61.9113 75.0039 62.4053C75.6847 64.7879 76.7328 72.3129 77.7518 79.6293C78.6214 85.8729 79.4698 91.9646 80.0508 94.5789C82.5742 96.5976 80.6816 99.2051 79.4199 100.257C77.9059 101.771 77.9479 104.673 78.1582 105.934C78.1582 111.99 80.6816 118.131 81.9433 120.444C84.9714 124.986 81.9433 129.486 80.0508 131.168C76.4019 134.361 76.2568 134.359 73.9343 134.329C73.687 134.326 73.4149 134.323 73.1114 134.323C68.0645 134.323 61.756 129.276 59.2325 126.752V121.075C56.2044 118.047 54.6063 119.392 54.1857 120.444V126.122H50.4006V117.92C50.4006 114.726 46.4381 114.172 42.5745 113.633C41.0978 113.427 39.6354 113.223 38.4143 112.874C32.8628 113.378 32.7367 115.397 32.7366 117.29C33.2581 119.376 32.0552 119.306 30.5534 119.219C30.2385 119.201 29.9104 119.182 29.5823 119.182C27.6898 119.182 23.9047 121.075 23.9047 124.229C23.9046 127.714 22.0569 128.468 20.7332 129.009C20.5099 129.1 20.3016 129.185 20.1195 129.276C17.5961 130.538 16.9652 131.168 15.7035 132.43C10.152 138.486 4.13786 132.43 1.82473 128.645C-0.608991 123.169 1.65164 118.28 5.21102 110.582C5.34226 110.299 5.47526 110.011 5.60986 109.719C6.78411 107.371 7.22978 106.479 7.39892 105.538C7.50239 104.963 7.50239 104.369 7.50239 103.411C7.50239 95.2097 6.87154 95.2097 6.24068 95.2097C4.22195 93.191 5.39954 90.1629 6.24068 88.9012C5.60983 54.835 13.8109 42.8487 22.6429 37.1711C26.1757 35.657 29.1617 34.8579 30.2132 34.6476C33.2413 34.6476 33.9983 32.9654 33.9983 32.1242C35.0077 30.1055 36.1012 29.1802 36.5217 28.9699C36.5217 25.9418 35.6806 23.5025 35.26 22.6614C35.0224 22.2456 34.8742 21.8695 34.7317 21.5078C34.5039 20.9295 34.2905 20.3879 33.7491 19.7789C31.3275 13.2419 32.0591 13.4691 32.8855 13.7257C33.0505 13.777 33.2193 13.8294 33.3675 13.8294ZM16.3343 98.9947L18.8577 92.6862C18.8577 92.1539 19.9581 90.8351 21.2399 89.2988C22.9964 87.1937 25.0934 84.6804 25.1663 83.2234C25.7971 70.6063 20.1194 71.2372 20.1194 75.0222C20.1194 79.3676 20.1194 79.4372 18.9174 81.2413C16.9652 83.8543 16.3343 85.7469 16.3343 90.7937C16.3343 93.42 15.9857 93.8847 15.5475 94.4687C15.3963 94.6702 15.2345 94.886 15.0726 95.2097C13.7397 97.4312 13.7758 98.1859 13.8035 98.7651C13.8073 98.8438 13.8109 98.9193 13.8109 98.9947C14.8203 101.518 15.9137 100.046 16.3343 98.9947ZM61.371 81.3309L61.7559 75.0222C61.7559 71.4894 66.1718 75.6531 65.541 78.8074V83.8542C65.541 85.7468 66.8027 88.9011 67.4336 89.5319C69.4523 94.0741 70.3775 97.733 70.5878 98.9947C74.6253 104.042 69.3261 104.042 68.0644 101.518C67.7402 101.194 67.5826 99.5371 67.4204 97.8315C67.267 96.2181 67.1094 94.5612 66.8027 93.9479C65.4044 91.1514 61.7559 88.6908 60.4941 88.9011C59.5654 88.6601 59.1118 88.0903 58.6854 87.5547C58.5325 87.3626 58.3832 87.175 58.2167 87.0086C57.8318 85.7469 57.7604 84.4851 59.2324 83.8542C60.6715 83.4297 60.8565 82.7196 61.0158 82.1082C61.0933 81.8111 61.1646 81.5372 61.371 81.3309Z" fill="#E22B2B"/>
</svg>
